<svg width="14" height="14" viewBox="0 0 14 14" fill="none" xmlns="http://www.w3.org/2000/svg">
<path d="M7 3.45333C7.14852 3.45333 7.29096 3.39433 7.39598 3.28931C7.501 3.18429 7.56 3.04185 7.56 2.89333C7.56 2.74481 7.501 2.60237 7.39598 2.49735C7.29096 2.39233 7.14852 2.33333 7 2.33333C6.85148 2.33333 6.70904 2.39233 6.60402 2.49735C6.499 2.60237 6.44 2.74481 6.44 2.89333C6.44 3.04185 6.499 3.18429 6.60402 3.28931C6.70904 3.39433 6.85148 3.45333 7 3.45333ZM7 7.55999C7.14852 7.55999 7.29096 7.50099 7.39598 7.39597C7.501 7.29095 7.56 7.14852 7.56 6.99999C7.56 6.85147 7.501 6.70903 7.39598 6.60401C7.29096 6.49899 7.14852 6.43999 7 6.43999C6.85148 6.43999 6.70904 6.49899 6.60402 6.60401C6.499 6.70903 6.44 6.85147 6.44 6.99999C6.44 7.14852 6.499 7.29095 6.60402 7.39597C6.70904 7.50099 6.85148 7.55999 7 7.55999ZM7 11.6667C7.14852 11.6667 7.29096 11.6077 7.39598 11.5026C7.501 11.3976 7.56 11.2552 7.56 11.1067C7.56 10.9581 7.501 10.8157 7.39598 10.7107C7.29096 10.6057 7.14852 10.5467 7 10.5467C6.85148 10.5467 6.70904 10.6057 6.60402 10.7107C6.499 10.8157 6.44 10.9581 6.44 11.1067C6.44 11.2552 6.499 11.3976 6.60402 11.5026C6.70904 11.6077 6.85148 11.6667 7 11.6667Z" stroke="#454545" stroke-width="1.5" stroke-linecap="round" stroke-linejoin="round"/>
</svg>
