<svg width="16" height="16" viewBox="0 0 16 16" fill="none" xmlns="http://www.w3.org/2000/svg">
<path d="M2.735 9.73502L7.735 4.73501C7.80531 4.66479 7.90063 4.62535 8 4.62535C8.09938 4.62535 8.19469 4.66479 8.265 4.73501L13.265 9.73502C13.3312 9.8061 13.3673 9.90013 13.3656 9.99728C13.3639 10.0944 13.3245 10.1871 13.2558 10.2558C13.1871 10.3245 13.0944 10.3639 12.9973 10.3656C12.9001 10.3673 12.8061 10.3313 12.735 10.265L8 5.53064L3.265 10.265C3.19391 10.3313 3.09989 10.3673 3.00274 10.3656C2.90559 10.3639 2.8129 10.3245 2.74419 10.2558C2.67548 10.1871 2.63613 10.0944 2.63441 9.99728C2.6327 9.90013 2.66876 9.8061 2.735 9.73502Z" fill="white"/>
</svg>
